<svg width="34" height="30" viewBox="0 0 34 30" fill="none" xmlns="http://www.w3.org/2000/svg">
<g clip-path="url(#clip0)">
<path d="M33.5563 17.1148L29.3127 24.3895C28.9825 24.9557 28.5096 25.4254 27.9413 25.7518C27.373 26.0782 26.729 26.25 26.0736 26.25H2.63818C1.55285 26.25 0.876621 25.0727 1.42348 24.1352L5.66707 16.8605C5.99732 16.2943 6.47018 15.8246 7.03852 15.4982C7.60686 15.1718 8.25083 15 8.90625 15H32.3416C33.427 15 34.1032 16.1773 33.5563 17.1148ZM8.90625 13.125H28.125V10.3125C28.125 8.75918 26.8658 7.5 25.3125 7.5H15.9375L12.1875 3.75H2.8125C1.25918 3.75 0 5.00918 0 6.5625V22.8543L4.04748 15.9157C5.0516 14.1943 6.91342 13.125 8.90625 13.125Z" fill="white"/>
</g>
<defs>
<clipPath id="clip0">
<rect width="33.75" height="30" fill="white"/>
</clipPath>
</defs>
</svg>
