<svg width="30" height="30" viewBox="0 0 30 30" fill="none" xmlns="http://www.w3.org/2000/svg">
<path d="M27.334 4.9043L16.084 0.216801C15.7413 0.0746398 15.3739 0.00146484 15.0029 0.00146484C14.6319 0.00146484 14.2646 0.0746398 13.9219 0.216801L2.67187 4.9043C1.62305 5.33789 0.9375 6.36329 0.9375 7.5C0.9375 19.1309 7.64648 27.1699 13.916 29.7832C14.6074 30.0703 15.3867 30.0703 16.0781 29.7832C21.0996 27.6914 29.0625 20.4668 29.0625 7.5C29.0625 6.36329 28.377 5.33789 27.334 4.9043ZM15.0059 26.1504L15 3.82618L25.3066 8.1211C25.1133 16.9922 20.4961 23.4199 15.0059 26.1504Z" fill="white"/>
</svg>
