<svg width="23" height="30" viewBox="0 0 23 30" fill="none" xmlns="http://www.w3.org/2000/svg">
<g clip-path="url(#clip0)">
<path d="M22.5 8.4375C22.5 5.84766 20.4023 3.75 17.8125 3.75C15.2227 3.75 13.125 5.84766 13.125 8.4375C13.125 10.5703 14.5488 12.3691 16.4941 12.9375C16.459 13.8809 16.248 14.6074 15.8496 15.0996C14.9473 16.2246 12.9609 16.4121 10.8574 16.6055C9.20508 16.7578 7.49414 16.9219 6.09375 17.5957V9.1582C7.99805 8.56055 9.375 6.78516 9.375 4.6875C9.375 2.09766 7.27734 0 4.6875 0C2.09766 0 0 2.09766 0 4.6875C0 6.78516 1.37695 8.56055 3.28125 9.1582V20.8359C1.37695 21.4395 0 23.2148 0 25.3125C0 27.9023 2.09766 30 4.6875 30C7.27734 30 9.375 27.9023 9.375 25.3125C9.375 23.3203 8.13281 21.6152 6.375 20.9414C6.55664 20.6367 6.83203 20.3672 7.24805 20.1562C8.19727 19.6758 9.61523 19.5469 11.1211 19.4062C13.5938 19.1777 16.3945 18.9141 18.0469 16.8633C18.8672 15.8437 19.2832 14.5312 19.3125 12.8848C21.1641 12.252 22.5 10.5 22.5 8.4375ZM4.6875 3.75C5.20312 3.75 5.625 4.17188 5.625 4.6875C5.625 5.20312 5.20312 5.625 4.6875 5.625C4.17188 5.625 3.75 5.20312 3.75 4.6875C3.75 4.17188 4.17188 3.75 4.6875 3.75ZM4.6875 26.25C4.17188 26.25 3.75 25.8281 3.75 25.3125C3.75 24.7969 4.17188 24.375 4.6875 24.375C5.20312 24.375 5.625 24.7969 5.625 25.3125C5.625 25.8281 5.20312 26.25 4.6875 26.25ZM17.8125 7.5C18.3281 7.5 18.75 7.92188 18.75 8.4375C18.75 8.95312 18.3281 9.375 17.8125 9.375C17.2969 9.375 16.875 8.95312 16.875 8.4375C16.875 7.92188 17.2969 7.5 17.8125 7.5Z" fill="white"/>
</g>
<defs>
<clipPath id="clip0">
<rect width="22.5" height="30" fill="white"/>
</clipPath>
</defs>
</svg>
