<svg width="21" height="30" viewBox="0 0 21 30" fill="none" xmlns="http://www.w3.org/2000/svg">
<g clip-path="url(#clip0)">
<path d="M5.62235 26.6214C5.62294 26.9899 5.7318 27.3509 5.93607 27.6579L6.93634 29.1632C7.10721 29.4205 7.33898 29.6315 7.61101 29.7775C7.88305 29.9235 8.18691 29.9999 8.49557 29.9999H12.1074C12.4161 29.9999 12.7199 29.9235 12.992 29.7775C13.264 29.6315 13.4958 29.4205 13.6667 29.1632L14.6669 27.6579C14.8711 27.3508 14.9802 26.9903 14.9806 26.6214L14.983 24.3743H5.61942L5.62235 26.6214ZM0 10.3118C0 12.9116 0.962811 15.2835 2.54955 17.0958C3.51646 18.2003 5.02886 20.5077 5.60538 22.4542C5.60772 22.4694 5.60947 22.4847 5.61181 22.4999H14.9906C14.9929 22.4847 14.9947 22.47 14.997 22.4542C15.5735 20.5077 17.086 18.2003 18.0529 17.0958C19.6396 15.2835 20.6024 12.9116 20.6024 10.3118C20.6024 4.60537 15.9733 -0.0182606 10.269 -0.000682466C4.29841 0.0174816 0 4.86084 0 10.3118ZM10.3012 5.62432C7.71947 5.62432 5.61884 7.72725 5.61884 10.3118C5.61884 10.8298 5.19977 11.2493 4.68237 11.2493C4.16496 11.2493 3.74589 10.8298 3.74589 10.3118C3.74589 6.69307 6.68642 3.74932 10.3012 3.74932C10.8186 3.74932 11.2377 4.16885 11.2377 4.68682C11.2377 5.20479 10.8186 5.62432 10.3012 5.62432Z" fill="white"/>
</g>
<defs>
<clipPath id="clip0">
<rect width="20.6024" height="30" fill="white"/>
</clipPath>
</defs>
</svg>
