<svg width="411" height="411" viewBox="0 0 411 411" fill="none" xmlns="http://www.w3.org/2000/svg">
<path d="M84.1028 121.549C102.829 121.549 118.01 106.368 118.01 87.6419C118.01 68.9153 102.829 53.7344 84.1028 53.7344C65.3762 53.7344 50.1953 68.9153 50.1953 87.6419C50.1953 106.368 65.3762 121.549 84.1028 121.549Z" stroke="#D3D3D3" stroke-miterlimit="10" stroke-dasharray="12.17 12.17"/>
<path d="M113.52 67.1681C103.016 71.6967 92.5512 77.2147 85.2065 85.9294C77.8617 94.6442 74.1703 107.088 78.5848 117.554C84.4834 131.52 103.169 139.626 103.245 154.772C103.321 165.618 93.1601 173.876 82.9231 177.796C72.6862 181.715 61.3837 183.161 52.0601 188.908C38.0176 197.584 31.434 214.405 28.732 230.541C25.9159 247.285 27.0576 266.351 39.0831 278.491C54.0009 293.599 78.699 291.886 99.8579 288.651C128.057 284.351 156.142 279.29 184.227 274.266C245.801 263.192 307.337 252.118 368.911 241.082C375.494 239.902 382.382 238.608 387.748 234.613C398.404 226.735 399.317 210.409 393.114 198.802C386.911 187.195 375.456 179.242 364.078 172.392C352.699 165.542 340.673 159.072 332.187 148.988C323.663 138.903 319.438 123.947 325.87 112.416C331.35 102.674 343.071 97.4603 348.17 87.5278C354.906 74.4367 347.143 57.7683 334.927 49.3961C322.711 41.1 169.081 43.2311 113.52 67.1681Z" fill="#F0FAFF"/>
<path d="M382.344 250.824C396.006 258.245 405.292 272.706 405.292 289.375C405.292 313.578 385.693 333.176 361.49 333.176C342.843 333.176 326.897 321.493 320.58 305.053L382.344 250.824Z" fill="#CCEEFF"/>
<path d="M314.605 305.282C352.899 305.282 383.943 274.238 383.943 235.944C383.943 197.651 352.899 166.607 314.605 166.607C276.311 166.607 245.268 197.651 245.268 235.944C245.268 274.238 276.311 305.282 314.605 305.282Z" fill="#B0E1FF"/>
<path d="M314.605 372.983C313.73 372.983 313.007 372.26 313.007 371.384V235.945C313.007 235.069 313.73 234.346 314.605 234.346C315.481 234.346 316.204 235.069 316.204 235.945V371.422C316.204 372.26 315.481 372.983 314.605 372.983Z" fill="#CCEEFF"/>
<path d="M314.605 273.429C314.187 273.429 313.806 273.277 313.502 272.973L294.093 253.564C293.484 252.955 293.484 251.928 294.093 251.319C294.702 250.71 295.73 250.71 296.339 251.319L315.747 270.727C316.356 271.336 316.356 272.364 315.747 272.973C315.442 273.277 315.024 273.429 314.605 273.429Z" fill="#CCEEFF"/>
<path d="M314.605 291.468C314.187 291.468 313.806 291.315 313.502 291.011L294.093 271.603C293.484 270.994 293.484 269.966 294.093 269.357C294.702 268.748 295.73 268.748 296.339 269.357L315.747 288.766C316.356 289.375 316.356 290.402 315.747 291.011C315.442 291.315 315.024 291.468 314.605 291.468Z" fill="#CCEEFF"/>
<path d="M361.223 372.945C360.462 372.792 359.929 372.069 359.929 371.308V300.335C359.929 299.459 360.576 298.698 361.414 298.66C362.327 298.622 363.088 299.345 363.088 300.258V371.422C363.088 372.374 362.213 373.135 361.223 372.945Z" fill="#CCEEFF"/>
<path d="M361.49 310.647C361.071 310.647 360.691 310.495 360.386 310.191C359.777 309.582 359.777 308.554 360.386 307.945L374.391 293.941C374.999 293.332 376.027 293.332 376.636 293.941C377.245 294.55 377.245 295.577 376.636 296.186L362.631 310.153C362.327 310.457 361.908 310.647 361.49 310.647Z" fill="#CCEEFF"/>
<path d="M361.49 323.625C361.071 323.625 360.691 323.472 360.386 323.168C359.777 322.559 359.777 321.531 360.386 320.923L374.391 306.918C374.999 306.309 376.027 306.309 376.636 306.918C377.245 307.527 377.245 308.554 376.636 309.163L362.631 323.168C362.327 323.472 361.908 323.625 361.49 323.625Z" fill="#CCEEFF"/>
<path d="M393.533 399.089H17.4674C15.0319 399.089 13.053 397.11 13.053 394.674V372.944C13.053 370.509 15.0319 368.53 17.4674 368.53H393.571C396.006 368.53 397.985 370.509 397.985 372.944V394.674C397.947 397.11 395.968 399.089 393.533 399.089Z" fill="#F2F2F2"/>
<path d="M74.3986 358.978C74.627 364.534 82.3142 376.179 81.0203 378.386C79.7264 380.594 66.4831 384.095 63.667 378.386C60.8889 372.678 66.2167 363.05 66.2167 358.978C66.2928 354.944 74.3986 358.978 74.3986 358.978Z" fill="#1371B7"/>
<path d="M96.5849 360.158C99.9337 365.98 117.401 374.238 118.619 377.245C119.837 380.251 89.9632 377.13 83.6079 369.481C85.8912 362.593 87.6799 357.113 87.6799 357.113L96.5849 360.158Z" fill="#1371B7"/>
<path d="M83.7601 212.731C79.8024 215.585 69.3371 239.598 72.8001 297.556C63.2101 332.035 65.836 361.794 65.836 361.794H74.9693C74.9693 361.794 84.2549 304.787 86.2718 300.487C88.2888 296.186 108.648 235.069 101.075 212.845C93.5024 190.62 83.7601 212.731 83.7601 212.731Z" fill="#0B577C"/>
<path d="M95.3292 205.805C91.3714 208.659 89.2783 237.01 92.7414 295.007C83.1514 329.485 86.1578 361.832 86.1578 361.832H96.3947C96.3947 361.832 104.196 302.237 106.213 297.937C108.23 293.637 128.59 235.107 121.017 212.883C113.444 190.62 95.3292 205.805 95.3292 205.805Z" fill="#0B577C"/>
<path d="M109.714 149.711C109.714 149.711 122.996 156.941 124.137 167.178C125.279 177.453 124.708 205.043 122.996 206.946C121.283 208.849 117.706 211.551 116.298 208.278C114.89 205.005 109.714 149.711 109.714 149.711Z" fill="#FFA42C"/>
<path d="M72.7622 145.943C75.3119 142.29 86.0436 142.176 86.0436 142.176C90.6483 140.882 94.8724 140.235 94.8724 140.235C94.8724 140.235 111.997 149.863 113.177 153.06C114.319 156.256 117.211 171.669 119.532 175.512C120.788 177.605 117.744 182.515 114.699 186.51C111.845 190.278 111.693 195.415 114.357 199.335L119.532 206.984C119.532 206.984 97.0036 217.259 83.7602 212.769C82.0097 198.003 78.6227 174.218 73.4091 171.669C57.8063 201.733 78.3944 220.989 78.3944 220.989C78.3944 220.989 77.4049 223.158 74.4747 225.898C31.1294 197.585 70.2505 149.558 72.7622 145.943Z" fill="#FFA42C"/>
<path d="M104.234 178.176L113.558 182.058L119.304 164.895L109.981 161.051L104.234 178.176Z" fill="#1371B7"/>
<path d="M119.532 176.159C123.566 186.434 129.922 210.79 117.782 210.79C114.89 210.79 114.319 180.65 114.319 178.062C116.069 176.159 119.532 176.159 119.532 176.159Z" fill="#FFBB69"/>
<path d="M119.532 176.159C119.532 176.159 116.069 168.472 113.748 169.119C111.427 169.766 104.5 171.06 104.5 172.963C104.5 174.865 114.319 178.1 114.319 178.1H117.782L119.532 176.159Z" fill="#FFD4B0"/>
<path d="M77.0244 230.274C73.3331 228.524 70.7072 223.957 79.2317 220.722C83.3036 219.2 83.9505 230.008 83.9505 230.008L77.0244 230.274Z" fill="#FFD4B0"/>
<path d="M87.7561 112.53C86.348 118.695 92.5511 117.934 98.7161 119.304C104.881 120.674 110.97 116.869 112.378 110.704C113.786 104.539 109.942 98.4498 103.777 97.0417C97.6125 95.6337 89.1261 106.365 87.7561 112.53Z" fill="#1371B7"/>
<path d="M111.084 142.328C111.084 138.865 112.492 136.239 114.319 136.239C116.146 136.239 117.554 138.865 117.554 142.328C117.554 145.791 116.146 148.417 114.319 148.417C112.492 148.417 111.084 145.791 111.084 142.328ZM112.226 142.328C112.226 145.258 113.329 147.275 114.319 147.275C115.308 147.275 116.412 145.258 116.412 142.328C116.412 139.398 115.308 137.381 114.319 137.381C113.329 137.381 112.226 139.398 112.226 142.328Z" fill="#FFA42C"/>
<path d="M120.217 136.619C127.448 130.531 138.484 115.689 111.845 110.742C85.2063 105.794 98.9063 135.097 98.9063 135.097L120.217 136.619Z" fill="#1371B7"/>
<path d="M100.2 131.558C98.4496 134.755 88.2507 144.231 88.2507 144.231L102.712 173.571L101.913 147.275L104.805 137.989L100.2 131.558Z" fill="#FFC99C"/>
<path d="M101.951 123.681C98.4877 130.036 99.6294 141.3 104.805 144.801C109.98 148.303 117.82 143.051 121.283 136.696C124.746 130.34 123.376 122.349 118.2 118.848C113.025 115.346 105.414 117.325 101.951 123.681Z" fill="#FFE3CA"/>
<path d="M125.317 126.116C118.391 133.156 101.075 127.41 101.075 122.92C101.075 118.429 105.68 111.998 105.68 111.998H113.748L125.317 126.116Z" fill="#1371B7"/>
<path d="M101.913 130.607C103.026 130.607 103.93 128.886 103.93 126.763C103.93 124.64 103.026 122.919 101.913 122.919C100.799 122.919 99.8956 124.64 99.8956 126.763C99.8956 128.886 100.799 130.607 101.913 130.607Z" fill="#FFE3CA"/>
<path d="M97.0035 134.336C97.0035 130.873 98.4116 128.247 100.238 128.247C102.065 128.247 103.473 130.873 103.473 134.336C103.473 137.799 102.065 140.425 100.238 140.425C98.4116 140.425 97.0035 137.799 97.0035 134.336ZM98.1452 134.336C98.1452 137.266 99.2488 139.283 100.238 139.283C101.228 139.283 102.331 137.266 102.331 134.336C102.331 131.406 101.228 129.389 100.238 129.389C99.2488 129.389 98.1452 131.406 98.1452 134.336Z" fill="#FFA42C"/>
<path d="M326.364 120.712H176.464C173.952 120.712 171.897 118.657 171.897 116.146V81.7053C171.897 79.1937 173.952 77.1387 176.464 77.1387H326.364C328.876 77.1387 330.931 79.1937 330.931 81.7053V116.146C330.931 118.657 328.876 120.712 326.364 120.712Z" fill="#B0E1FF"/>
<path d="M323.815 115.955C324.348 118.01 323.929 122.539 329.599 125.888C323.434 125.888 317.65 122.235 317.65 115.993C318.715 112.34 323.815 115.955 323.815 115.955Z" fill="#B0E1FF"/>
<path d="M148.112 161.394H197.318C198.954 161.394 200.324 160.062 200.324 158.387V135.782C200.324 134.146 198.992 132.776 197.318 132.776H148.112C146.476 132.776 145.106 134.108 145.106 135.782V158.387C145.106 160.062 146.476 161.394 148.112 161.394Z" fill="#1371B7"/>
<path d="M152.222 156.637C151.689 158.692 152.108 163.22 146.438 166.569C152.603 166.569 158.387 162.916 158.387 156.675C157.36 153.06 152.222 156.637 152.222 156.637Z" fill="#1371B7"/>
<path d="M191.381 111.16C197.876 111.16 203.141 105.895 203.141 99.401C203.141 92.9066 197.876 87.6418 191.381 87.6418C184.887 87.6418 179.622 92.9066 179.622 99.401C179.622 105.895 184.887 111.16 191.381 111.16Z" fill="white"/>
<path d="M315.747 91.4855H214.101C213.035 91.4855 212.198 90.6102 212.198 89.5827C212.198 88.5172 213.073 87.6799 214.101 87.6799H315.747C316.812 87.6799 317.65 88.5552 317.65 89.5827C317.65 90.6102 316.812 91.4855 315.747 91.4855Z" fill="white"/>
<path d="M315.747 100.847H214.101C213.035 100.847 212.198 99.972 212.198 98.9445C212.198 97.879 213.073 97.0417 214.101 97.0417H315.747C316.812 97.0417 317.65 97.917 317.65 98.9445C317.65 99.972 316.812 100.847 315.747 100.847Z" fill="white"/>
<path d="M268.063 110.209H213.606C212.845 110.209 212.198 109.562 212.198 108.801V107.811C212.198 107.05 212.845 106.403 213.606 106.403H268.063C268.824 106.403 269.471 107.05 269.471 107.811V108.801C269.471 109.6 268.824 110.209 268.063 110.209Z" fill="white"/>
<path d="M160.1 151.233C162.37 151.233 164.21 149.393 164.21 147.123C164.21 144.853 162.37 143.013 160.1 143.013C157.83 143.013 155.99 144.853 155.99 147.123C155.99 149.393 157.83 151.233 160.1 151.233Z" fill="white"/>
<path d="M172.696 151.233C174.966 151.233 176.806 149.393 176.806 147.123C176.806 144.853 174.966 143.013 172.696 143.013C170.426 143.013 168.586 144.853 168.586 147.123C168.586 149.393 170.426 151.233 172.696 151.233Z" fill="white"/>
<path d="M185.331 151.233C187.6 151.233 189.441 149.393 189.441 147.123C189.441 144.853 187.6 143.013 185.331 143.013C183.061 143.013 181.221 144.853 181.221 147.123C181.221 149.393 183.061 151.233 185.331 151.233Z" fill="white"/>
</svg>
