<svg width="250" height="250" viewBox="0 0 250 250" fill="none" xmlns="http://www.w3.org/2000/svg">
<path d="M170.17 27.3086C143.712 9.87236 106.531 13.4264 83.141 39.3074C70.3524 53.4629 65.158 72.9343 51.8834 86.7861C36.9381 102.369 19.0766 117.527 12.3026 138.791C5.10333 161.391 11.4217 187.302 27.5213 204.587C47.1143 225.607 75.9114 219.289 103.129 218.955C214.581 217.558 297.418 143.165 192.011 51.458C183.202 43.7423 178.919 33.0498 170.17 27.3086Z" fill="#CCE9FF"/>
<path d="M32.321 94.4107C32.8981 94.5929 35.9358 96.8408 35.9358 96.8408L39.5202 99.1494L39.6721 97.8432C39.6721 97.8432 41.1301 94.9271 42.9224 95.0486C42.9224 95.0486 40.7656 97.6913 40.4922 99.4532C40.2189 101.215 40.0973 102.43 40.0973 102.43L42.4667 104.769L38.5178 109.842L29.2529 102.916C29.2529 102.916 31.7438 94.2284 32.321 94.4107Z" fill="#DBA17B"/>
<path d="M30.4678 94.4106L32.0778 107.321L38.5177 107.473L40.0669 94.4106H30.4678Z" fill="#FFBE55"/>
<path d="M29.0706 94.5929H41.2213V93.3171H40.067V91.3123L30.1946 92.7703L30.1642 93.4994H29.0706V94.7448" fill="#0E538C"/>
<path d="M29.8907 103.159C27.6428 103.372 30.4678 97.2053 30.4678 97.2053C30.4678 97.2053 36.5432 96.78 36.6039 97.1142C36.6647 97.4483 36.6343 97.9951 36.1483 98.1166C35.6623 98.2381 31.8652 98.7545 31.8652 98.7545C31.8652 98.7545 35.8141 98.9368 35.7534 99.362C35.6319 99.9999 35.1762 100.061 33.9915 100.243C32.9891 100.395 30.802 100.456 30.802 100.456C30.802 100.456 34.9636 100.547 34.8725 100.82C34.7813 101.093 35.0547 101.944 33.627 101.731C30.3767 101.306 29.8907 103.159 29.8907 103.159Z" fill="#DBA17B"/>
<path d="M57.2296 127.977C57.2296 127.977 51.0631 171.567 53.9186 180.832C56.774 190.097 57.8979 198.451 57.8979 198.451L72.2357 194.259C72.2357 194.259 67.4969 172.448 66.7679 168.256C66.0692 164.064 73.39 130.012 73.39 130.012L57.2296 127.977Z" fill="#0B4870"/>
<path d="M64.0037 131.106L70.7777 201.185H84.4775C84.4775 201.185 80.0425 127.005 80.8323 126.367C81.6221 125.79 64.0037 131.106 64.0037 131.106Z" fill="#0B4870"/>
<path d="M58.5966 88.396C58.5966 88.396 57.1385 111.908 54.0097 111.057C50.8505 110.237 42.4058 104.101 42.4058 104.101L37.2722 109.751C37.2722 109.751 52.9161 127.157 59.356 120.049C65.7655 112.91 58.5966 88.396 58.5966 88.396Z" fill="#0B4870"/>
<path d="M62.8188 212.91L61.8772 208.171L71.8711 204.161L73.4507 211.209L72.9039 211.3C70.656 212.333 59.7508 217.375 58.0497 217.527C56.1663 217.71 62.8188 212.91 62.8188 212.91Z" fill="#0B4870"/>
<path d="M86.5735 143.925L85.48 145.504C85.48 145.504 84.9636 146.567 83.6877 148.177C83.3536 148.603 82.9587 148.967 82.503 149.24C81.9563 149.575 81.1968 150 80.7108 150.121C80.1033 150.243 79.9818 151.033 80.4982 151.276C81.0146 151.488 82.6549 151.185 84.2345 149.97C85.8141 148.785 85.0851 151.792 84.8117 152.916C84.5687 154.01 83.9611 157.473 84.2345 157.837C84.6294 158.353 85.2673 157.989 85.48 156.895C85.6926 155.771 86.6039 152.491 87.1811 152.673C87.7582 152.825 86.4216 158.445 86.4216 158.445C86.4216 158.445 85.9356 159.599 86.6039 159.812C87.7886 160.176 88.791 154.101 88.8518 153.524C88.9125 153.129 89.5504 153.281 89.4593 153.706C89.3682 154.161 88.0012 159.265 89.1859 159.66C90.1276 159.963 90.0365 154.678 90.9174 153.767C91.7983 152.855 90.5529 157.776 91.4642 158.019C91.7983 158.11 92.0717 158.141 92.3755 155.194C92.6792 152.187 92.1932 143.955 92.1932 143.955L86.4824 144.016" fill="#FFE3CA"/>
<path d="M66.7376 80.4982C66.8591 79.5565 66.3731 75.6379 66.3731 75.6379C66.3731 75.6379 62.7886 75.3645 62.4545 71.8408C62.1204 68.2867 62.09 60.085 62.09 60.085L68.4995 56.6829L75.8506 61.8773L77.5214 65.7655L75.3342 75.0304V79.678L66.7376 80.4982Z" fill="#DBA17B"/>
<path d="M66.3732 75.6378C66.3732 75.6378 68.7729 75.5771 71.0208 73.9064C71.0208 73.9064 70.0487 76.5491 66.4643 76.5188L66.3732 75.6378Z" fill="#C68C6B"/>
<path d="M77.3997 69.6537C76.4277 71.8104 75.8505 74.9696 75.8505 74.9696C75.3341 75.9417 75.1519 72.8432 75.1519 72.8432C75.1519 72.8432 74.6962 69.8663 75.1215 68.712C75.1215 68.712 76.9441 69.2892 77.339 66.0389C77.5516 64.4289 75.1215 63.6695 74.4532 65.6136L72.9343 65.7655C72.9343 65.7655 72.8128 59.6901 69.3195 60.8141C69.3195 60.8141 66.7983 62.3633 65.2794 61.4216C63.7606 60.4799 63.8821 60.1458 63.8821 60.1458C63.8821 60.1458 63.1531 61.7557 61.209 60.6926C59.2648 59.6294 59.0218 57.7764 59.6901 56.8955C60.085 56.3791 60.4495 55.8019 61.0874 55.6804C61.7253 55.5589 62.424 55.8323 62.8189 56.3183C62.3329 55.6197 62.667 54.5869 63.3961 54.1008C64.0947 53.6452 65.0364 53.6756 65.8262 53.9793C66.616 54.2831 67.2843 54.8299 67.9222 55.3766C68.3778 54.1008 69.7448 53.1895 71.0814 53.311C72.4483 53.4325 73.633 54.5261 73.876 55.8627C74.6051 54.9514 76.0024 54.7387 77.0656 55.2551C78.1288 55.7715 78.797 56.8651 79.0097 58.0194C79.2223 59.1737 78.9793 60.3584 78.5237 61.452C79.3438 60.9963 80.4678 61.3305 81.0145 62.0899C81.5613 62.8493 81.5613 63.9125 81.1664 64.763C80.7715 65.6136 80.0121 66.2515 79.1919 66.6768C79.7995 67.1628 80.0121 68.1348 79.6172 68.8335C79.2223 69.5322 78.311 69.8967 77.582 69.6233" fill="#0E538C"/>
<path d="M89.6721 89.8237C89.6721 89.8237 87.2116 78.4932 75.3343 79.6779C64.4595 80.7714 64.4595 80.7715 64.4595 80.7715C64.4595 80.7715 56.9868 83.9306 58.05 92.831C59.0828 101.731 59.5992 109.872 59.3258 111.422C59.0524 113.001 56.44 127.005 57.2298 127.977C65.067 137.515 85.0852 122.296 85.0852 122.296L89.6721 89.8237Z" fill="#FFBE55"/>
<path d="M75.3342 79.6779L78.0985 145.869L86.3306 141.403L85.48 82.6852C85.48 82.6852 83.2625 78.8881 75.3342 79.6779Z" fill="#0E538C"/>
<path d="M92.4971 145.109L89.672 89.7934C88.7911 86.3912 86.9078 83.7788 84.4776 81.5917V145.838L92.4971 145.109Z" fill="#0E538C"/>
<path d="M66.7377 80.4982C66.7377 80.4982 59.3258 84.1737 59.6599 96.5978C60.0244 109.022 55.1945 144.137 55.1945 144.137L48.9977 142.892C48.9977 142.892 56.1666 109.599 56.4703 103.767C56.7741 97.8129 56.2577 89.3985 60.2674 83.5966C63.1532 79.435 66.7377 80.4982 66.7377 80.4982Z" fill="#0E538C"/>
<path d="M75.3343 79.678C75.3343 79.678 77.7644 85.1458 77.5214 87.1203C77.2784 89.1251 76.4278 93.3171 76.4278 93.3171C76.4278 93.3171 78.22 94.4107 78.0681 95.3523C77.9466 96.294 76.519 111.179 76.519 111.179L75.3343 79.678Z" fill="#0B4870"/>
<path d="M84.4775 145.869C83.7181 132.503 83.9004 106.561 83.141 93.1652L84.4775 145.869Z" fill="#0B4870"/>
<path d="M62.7582 207.837C62.8797 207.776 60.2369 197.782 60.2369 197.782L69.0158 195.231L70.8688 204.587L62.7582 207.837Z" fill="#DBA17B"/>
<path d="M72.9952 201.215H82.9891V209.052H72.9952V201.215Z" fill="#DBA17B"/>
<path d="M72.0231 213.305L72.9344 208.566H83.7181L82.5942 215.553L82.0171 215.583C79.5565 215.705 67.5578 216.343 65.9174 215.857C64.0341 215.279 72.0231 213.305 72.0231 213.305Z" fill="#0B4870"/>
<path d="M156.47 59.5382C155.62 62.3936 154.769 65.249 153.919 68.1044C153.797 68.4993 153.676 68.8942 153.706 69.2891C153.736 70.5042 154.86 71.4459 156.045 71.6585C157.23 71.8711 158.445 71.5674 159.599 71.2332C159.903 72.4483 161.361 72.9647 162.606 73.2077C168.135 74.2405 173.998 73.5115 179.101 71.1421C176.914 67.9829 175.121 64.5807 173.785 60.9659C169.441 61.1482 165.097 61.3608 160.753 61.5431C159.994 61.5734 159.204 61.6038 158.475 61.3608C157.746 61.0874 157.108 60.4799 157.047 59.7205" fill="#0E538C"/>
<path d="M206.895 97.1141L208.171 95.6257C208.171 95.6257 209.083 94.8663 210.389 93.1652C210.723 92.7399 210.966 92.2235 211.148 91.7071C211.361 91.0692 211.604 90.2186 211.573 89.7022C211.543 89.0643 212.302 88.7606 212.667 89.2162C213.032 89.6719 213.092 91.4033 212.302 93.2563C211.513 95.1093 214.338 93.6512 215.371 93.1044C216.403 92.588 219.684 91.1299 220.109 91.3122C220.717 91.5856 220.535 92.2842 219.471 92.8006C218.408 93.317 215.401 95.0181 215.674 95.5345C215.978 96.0509 221.203 93.3474 221.203 93.3474C221.203 93.3474 222.236 92.588 222.6 93.1955C223.268 94.2891 217.467 96.78 216.92 96.9926C216.525 97.1445 216.829 97.752 217.254 97.5394C217.679 97.3571 222.418 94.7144 223.117 95.8079C223.633 96.6585 218.378 97.9039 217.71 98.9975C217.041 100.091 221.598 97.6609 222.084 98.4811C222.266 98.7848 222.357 99.0582 219.502 100.061C216.616 101.093 208.293 102.673 208.293 102.673L206.956 96.9622" fill="#FF957E"/>
<path d="M183.414 83.627C183.414 83.627 188.153 97.3268 189.611 97.4484C199.605 98.3597 210.48 94.0462 210.48 94.0462L213.214 101.762C213.214 101.762 184.903 114.429 178.827 102.217C172.357 89.277 172.691 87.2418 172.691 87.2418L183.414 83.627Z" fill="#FCD2B1"/>
<path d="M182.776 161.087C177.704 184.386 144.35 206.045 144.35 206.045L138.67 199.089C138.67 199.089 165.492 175.182 166.616 164.55C167.77 153.919 158.87 137.242 158.87 137.242L168.105 133.323L182.776 161.087Z" fill="#0B4870"/>
<path d="M171.507 76.2454C171.355 75.2734 171.719 71.2636 171.719 71.2636C171.719 71.2636 175.395 70.8687 175.608 67.2235C175.82 63.5783 175.608 55.1944 175.608 55.1944L168.925 51.9137L161.574 57.4726L162.698 75.6683L171.507 76.2454Z" fill="#FFE3CA"/>
<path d="M162.09 60.328C162.09 60.328 168.105 59.7509 169.137 54.3134L175.638 60.328C175.638 60.328 177.612 56.2879 173.998 52.5516C170.383 48.8152 167.922 49.5747 166.495 49.5747C165.188 49.5747 158.506 51.0024 156.531 58.5662C156.379 59.1129 156.258 60.4799 156.167 61.0874L162.09 60.328Z" fill="#0E538C"/>
<path d="M171.689 71.294C171.689 71.294 169.229 71.3244 166.859 69.6537C166.859 69.6537 167.953 72.3268 171.598 72.175L171.689 71.294Z" fill="#FCD2B1"/>
<path d="M179.253 117.284C179.253 118.59 178.797 120.383 178.797 120.383L152.977 127.825C152.977 127.825 151.124 116.16 155.832 109.66C157.989 106.683 157.503 102.491 156.622 98.9064L153.585 86.6646L157.655 75.1519L173.907 76.2454C173.907 76.2454 183.323 75.3037 186.604 87.7582L180.559 96.8408L180.498 100.273L179.253 117.284Z" fill="#FFBE55"/>
<path d="M154.071 112.728C153.797 112.728 149.119 123.208 153.342 129.435C153.736 130.012 154.708 131.44 156.015 133.475C162.272 143.074 176.549 165.644 177.035 168.955C177.612 172.965 189.156 215.036 189.156 215.036L197.752 213.669L190.735 165.948L179.253 117.284L154.071 112.728Z" fill="#0E538C"/>
<path d="M168.985 53.8882C168.985 53.8882 170.322 56.4702 169.745 58.4143L175.577 59.9332C175.577 59.9028 176.914 52.5212 168.985 53.8882Z" fill="#0E538C"/>
<path d="M156.47 60.5406C156.47 60.5406 155.802 68.9246 162.272 70.4131L161.847 60.2976L156.47 60.5406Z" fill="#0E538C"/>
<path d="M182.959 99.6051L197.448 105.711L221.173 106.227L232.716 86.6342L208.323 84.9939L197.752 103.949L183.05 98.2381L182.959 99.6051Z" fill="#FFBE55"/>
<path d="M185.571 85.2065L189.641 95.1397L180.528 99.6658L179.678 90.9781L185.571 85.2065Z" fill="#FFBE55"/>
<path d="M168.013 74.4229L171.324 75.8506L170.656 82.5334L166.464 75.0304L168.013 74.4229Z" fill="#FFE3CA"/>
<path d="M198.542 213.67C198.542 213.67 206.106 215.674 204.222 216.252C202.339 216.829 189.247 215.401 189.247 215.401L188.821 213.913L198.542 213.67Z" fill="#0E538C"/>
<path d="M189.247 215.401L186.574 208.202H198.178L198.542 213.669L189.247 215.401Z" fill="#0E538C"/>
<path d="M144.259 206.531C144.259 206.531 146.173 214.125 144.745 212.758C143.348 211.391 138.184 199.271 138.184 199.271L139.277 198.177L144.259 206.531Z" fill="#0B4870"/>
<path d="M138.214 199.271L143.226 193.439L148.846 203.554L144.259 206.531L138.214 199.271Z" fill="#0B4870"/>
<path d="M161.148 64.9149C161.179 64.3074 161.179 63.6695 160.966 63.1227C160.753 62.5456 160.267 62.0595 159.66 61.9988C158.961 61.938 158.293 62.5152 158.171 63.1835C158.05 63.8821 158.475 64.5808 159.083 64.9453C159.69 65.2795 160.45 65.2795 161.118 65.0061" fill="#FFE3CA"/>
<path d="M165.28 117.77C165.28 117.77 165.614 84.1434 164.429 81.5917C164.429 81.5917 163.184 75.2734 158.354 75.1519L160.51 75.3341C160.51 75.3341 164.885 75.0303 166.161 83.6269C167.406 92.2235 167.345 118.044 167.345 118.044L165.28 117.77Z" fill="#0E538C"/>
<path d="M174.636 118.955C174.636 118.955 175.942 80.3158 174.909 76.2454H176.215C176.215 76.2454 177.369 79.5564 177.157 88.8213C177.005 94.3802 177.157 118.955 177.157 118.955H174.636Z" fill="#0E538C"/>
<path d="M190.036 101.823C190.036 101.823 196.355 105.832 197.752 105.802C199.119 105.771 203.098 105.68 202.673 106.227C202.248 106.774 197.752 107.533 197.752 107.533L190.036 101.823Z" fill="#FFE3CA"/>
<path d="M189.581 110.267C189.581 110.267 159.66 118.317 155.559 105.316C151.215 91.5248 151.154 95.1093 151.154 95.1093L160.541 86.057C160.541 86.057 165.583 101.974 167.011 102.339C174.879 104.344 183.809 103.068 186.968 102.491C187.333 102.187 187.728 101.853 188.214 101.397C188.609 101.033 188.943 100.577 189.186 100.091C189.49 99.4835 189.854 98.6937 189.915 98.1773C190.006 97.5394 190.796 97.3571 191.069 97.8432C191.343 98.3292 191.16 100.061 190.067 101.762C190.067 101.762 197.205 106.349 197.783 107.442L189.581 110.267Z" fill="#FFE3CA"/>
<path d="M157.655 75.1519C157.655 75.1519 150.82 76.4581 150.547 87.2114C150.273 97.9647 154.617 106.197 154.617 106.197L166.221 100.152L157.655 75.1519Z" fill="#FFBE55"/>
<path d="M98.056 181.288H129.405C130.863 181.288 132.047 180.103 132.047 178.645C132.047 177.187 130.863 176.002 129.405 176.002H98.0863C96.6283 176.002 95.4436 177.187 95.4436 178.645C95.4132 180.103 96.5979 181.288 98.056 181.288Z" fill="#D3D3D3"/>
<path d="M120.222 212.007V214.68H93.2479V212.007H120.222Z" fill="#0B4870"/>
<path d="M117.74 214.155C117.497 215.553 118.439 216.859 119.836 217.072C121.233 217.315 122.54 216.373 122.752 214.976C122.995 213.578 122.054 212.272 120.656 212.059C119.259 211.816 117.953 212.758 117.74 214.155Z" fill="#0B4870"/>
<path d="M105.529 179.556H108.202V213.092H105.529V179.556Z" fill="#0B4870"/>
<path d="M90.7656 214.155C90.5225 215.553 91.4642 216.859 92.8616 217.072C94.2589 217.315 95.5651 216.373 95.7777 214.976C96.0207 213.578 95.0791 212.272 93.6817 212.059C92.2844 211.816 90.9782 212.758 90.7656 214.155Z" fill="#0B4870"/>
<path d="M89.8543 181.288H119.441C121.446 181.288 122.904 179.313 122.327 177.339L108.202 128.615C107.837 127.309 106.653 126.397 105.316 126.397H75.7291C73.7243 126.397 72.2662 128.372 72.8434 130.346L86.9685 179.07C87.333 180.407 88.5177 181.288 89.8543 181.288Z" fill="#D3D3D3"/>
<path d="M93.9248 181.288H119.715C121.719 181.288 123.178 179.313 122.6 177.339L108.475 128.615C108.111 127.309 106.926 126.397 105.589 126.397H79.7997C77.7948 126.397 76.3368 128.372 76.9139 130.346L91.0391 179.07C91.4036 180.407 92.5883 181.288 93.9248 181.288Z" fill="#F2F2F2"/>
<path d="M89.8544 181.288H121.203C122.661 181.288 123.846 180.103 123.846 178.645C123.846 177.187 122.661 176.002 121.203 176.002H89.8847C88.4267 176.002 87.242 177.187 87.242 178.645C87.2116 180.103 88.3963 181.288 89.8544 181.288Z" fill="#D3D3D3"/>
<path d="M115.766 139.915L122.722 158.414L121.082 162.029L111.695 160.389L109.022 140.614L115.766 139.915Z" fill="#FCD2B1"/>
<path d="M111.543 130.923C111.543 130.923 117.041 133.809 118.256 143.287L110.996 147.266L111.543 130.923Z" fill="#2A94F4"/>
<path d="M102.673 127.309L111.331 130.954L118.165 161.361L95.322 170.352L83.141 135.662C83.141 135.662 85.1155 128.432 96.5371 126.579L102.673 127.309Z" fill="#2A94F4"/>
<path d="M79.587 163.001C79.587 162.606 79.83 160.207 79.9515 159.812L83.7182 135.723C84.4472 132.412 88.1532 130.741 91.0997 132.382C93.2868 133.597 94.2589 136.179 93.4083 138.518L88.943 159.204L79.587 163.001Z" fill="#FFE3CA"/>
<path d="M84.7204 157.868L110.206 155.893L111.482 160.389L86.9379 168.682C83.1712 169.957 79.3134 166.981 79.5868 163.001C79.769 160.267 81.9561 158.08 84.7204 157.868Z" fill="#FFE3CA"/>
<path d="M86.2697 131.652C86.2697 131.652 83.0194 133.05 81.6221 141.494L93.1045 145.018C93.1045 145.018 100.608 136.604 92.5881 130.984L86.2697 131.652Z" fill="#2A94F4"/>
<path d="M118.196 160.662C117.254 163.153 112.546 163.275 110.024 162.333C107.534 161.391 104.952 159.963 105.893 157.442C106.835 154.951 110.996 153.463 113.73 154.07C117.041 154.83 119.137 158.141 118.196 160.662Z" fill="#FFE3CA"/>
<path d="M104.313 164.064L122.509 161.725L122.236 159.66L104.04 161.999C103.463 162.059 103.068 162.576 103.159 163.153C103.25 163.73 103.767 164.125 104.313 164.064Z" fill="#F2F2F2"/>
<path d="M120.11 162.029L144.229 158.931C145.626 158.748 146.719 157.685 146.902 156.288L149.423 138.791C149.636 137.242 148.329 135.905 146.78 136.118L124.636 138.973C123.694 139.095 122.965 139.824 122.843 140.735L120.11 162.029Z" fill="#F2F2F2"/>
<path d="M148.937 208.232L155.194 210.814L159.143 211.118C160.966 211.239 162.485 212.576 162.849 214.338L163.032 215.158L141.586 217.831L141.16 209.204L148.937 208.232Z" fill="#0B4870"/>
<path d="M141.16 209.204L139.064 199.818L146.811 198.755L148.937 208.232L141.16 209.204Z" fill="#FFE3CA"/>
<path d="M95.3219 170.352C95.3219 170.352 95.9295 175.547 105.255 176.245H127.673L138.244 205.741L149.362 203.949L138.244 160.632L112.758 163.457L95.3219 170.352Z" fill="#0B4870"/>
<path d="M166.89 191.282L173.603 190.279L177.157 188.487C178.797 187.667 180.772 188.032 182.017 189.338L182.594 189.945L165.583 203.25L160.784 196.081L166.89 191.282Z" fill="#0E538C"/>
<path d="M160.723 196.112L154.891 188.7L161.027 183.809L166.89 191.282L160.723 196.112Z" fill="#FFE3CA"/>
<path d="M118.165 161.361L135.45 156.197C136.179 155.984 136.877 155.711 137.606 155.468C139.095 154.891 142.862 154.101 145.778 158.566C149.514 164.307 164.49 185.875 164.49 185.875L155.346 192.618L135.389 167.193C133.718 164.884 131.045 163.518 128.19 163.518L112.758 163.487L118.165 161.361Z" fill="#0E538C"/>
<path d="M95.9295 117.831C95.6257 117.254 90.2794 107.716 95.1701 105.316C95.1701 105.316 95.808 100.273 101.428 100.82C107.047 101.367 105.529 103.007 109.113 102.187C112.697 101.367 116.069 103.22 115.796 106.227C115.522 109.234 113.244 110.51 109.113 109.781C104.982 109.052 101.701 109.599 101.701 109.599L98.2381 110.601L95.9295 117.831Z" fill="#FFBE55"/>
<path d="M95.2613 128.159L95.6866 116.039L104.071 119.016L103.402 128.736C103.25 130.984 102.005 132.746 99.7571 132.594L99.0584 132.564C96.8105 132.351 95.1094 130.407 95.2613 128.159Z" fill="#FFE3CA"/>
<path d="M96.4156 117.71C96.4156 117.71 94.8361 127.825 103.463 128.402L103.858 123.603L96.4156 117.71Z" fill="#FCD2B1"/>
<path d="M103.524 126.154H103.22C98.9065 125.942 95.5955 122.296 95.8081 117.983L96.2334 109.174C96.2941 108.05 97.2358 107.199 98.3598 107.26L108.627 107.746C110.602 107.837 112.151 109.538 112.06 111.513L111.726 118.712C111.482 123.025 107.837 126.336 103.524 126.154Z" fill="#FFE3CA"/>
<path d="M97.7826 115.34C97.7218 116.798 96.4764 117.922 95.0183 117.831C93.5602 117.77 92.4363 116.525 92.5274 115.067C92.5882 113.609 93.8336 112.485 95.2917 112.576C96.7194 112.637 97.8433 113.882 97.7826 115.34Z" fill="#FFE3CA"/>
<path d="M99.028 108.293L98.5116 118.104C98.4508 118.985 98.8154 119.897 99.5748 120.383C100.03 120.717 100.395 121.142 101.215 121.021C103.554 120.686 102.461 118.955 107.23 119.198C111.574 119.441 111.239 121.841 111.239 121.841C111.239 121.841 110.389 126.428 104.435 126.64C98.4812 126.853 95.5043 123.086 96.203 118.074L96.7801 107.716L99.028 108.293Z" fill="#FFBE55"/>
<path d="M111.756 109.964C111.756 109.964 108.992 110.389 104.951 109.417C100.942 108.414 97.7522 111.665 97.7522 111.665C97.7522 111.665 96.9017 113.153 96.689 113.123C96.4764 113.092 95.2613 112.606 95.2613 112.606L95.3221 108.08L98.2686 105.772L106.44 105.437L111.27 106.501L111.756 109.964Z" fill="#FFBE55"/>
</svg>
