<svg width="350" height="350" viewBox="0 0 350 350" fill="none" xmlns="http://www.w3.org/2000/svg">
<path d="M122.273 238.324C180.478 238.324 227.662 191.14 227.662 132.935C227.662 74.7306 180.478 27.5464 122.273 27.5464C64.0685 27.5464 16.8843 74.7306 16.8843 132.935C16.8843 191.14 64.0685 238.324 122.273 238.324Z" fill="#E3F4FF"/>
<path d="M247.722 255.468C277.057 255.468 300.838 231.687 300.838 202.352C300.838 173.017 277.057 149.236 247.722 149.236C218.387 149.236 194.606 173.017 194.606 202.352C194.606 231.687 218.387 255.468 247.722 255.468Z" stroke="#2A94F4" stroke-miterlimit="10"/>
<path d="M333.505 325.565H20.3844C18.6992 325.565 17.3057 324.171 17.3057 322.486L46.8288 274.232C46.8288 272.546 48.2223 271.153 49.9075 271.153H312.278C313.963 271.153 315.357 272.546 315.357 274.232L336.551 322.486C336.583 324.171 335.19 325.565 333.505 325.565Z" fill="#F2F2F2"/>
<path d="M123.893 283.598C123.861 284.537 122.597 284.797 122.208 283.954C121.139 281.75 120.523 280.551 119.324 277.213C117.153 271.218 115.111 264.574 114.593 261.593C114.593 261.593 117.574 263.084 119.616 259.033C119.94 259.292 120.199 259.584 120.491 259.843C127.361 266.454 122.597 269.727 123.634 273.875C124.444 277.246 124.055 279.871 123.893 283.598Z" fill="#FCD2B1"/>
<path d="M123.894 283.598C123.861 284.537 122.597 284.797 122.208 283.954C121.139 281.75 120.523 280.551 119.324 277.213C119.875 271.348 119.486 264.38 117.509 262.662C117.866 261.561 119.032 260.621 120.458 259.811C127.329 266.422 122.565 269.695 123.602 273.843C124.444 277.246 124.056 279.871 123.894 283.598Z" fill="#0E538C"/>
<path d="M88.2129 188.546C88.2129 208.671 93.3333 216.579 97.9027 223.125C102.505 229.639 112.194 260.685 114.657 263.861C116.083 264.736 120.491 261.917 121.366 260.685C120.134 255.403 118.287 235.634 111.093 226.269C108.856 213.565 105.13 197.783 107.43 193.958C109.731 190.134 100.042 180.056 100.042 180.056L88.2129 188.546Z" fill="#2A94F4"/>
<path d="M117.509 220.371C116.537 221.861 113.231 224.681 109.634 227.435C105.518 230.546 101.046 233.528 99.1988 234.176C99.1016 231.357 102.99 225.588 106.134 223.482C107.106 222.833 107.819 221.829 107.981 220.662C108.143 219.496 108.435 218.75 109.569 218.296C111.287 217.616 114.884 216.449 114.884 216.449L116.018 218.199L117.509 220.371Z" fill="#FCD2B1"/>
<path d="M116.083 218.167C113.199 219.01 110.963 223.385 109.634 227.403C105.518 230.514 101.046 233.496 99.1988 234.144C99.1016 231.324 102.99 225.556 106.134 223.449C107.106 222.801 107.819 221.797 107.981 220.63C108.143 219.463 108.435 218.718 109.569 218.264C111.287 217.584 114.884 216.417 114.884 216.417L116.083 218.167Z" fill="#0E538C"/>
<path d="M112.454 174.903C126.454 178.792 150.694 187.769 149.657 190.491C148.62 193.213 117.444 224.551 117.444 224.551L114.366 216.611C114.366 216.611 123.796 197.588 131.088 196.13C109.764 194.056 108.079 196.551 105.778 191.755C103.898 186.958 98.875 180.671 98.875 180.671L112.454 174.903Z" fill="#2A94F4"/>
<path d="M161.162 168.389L170.722 169.199C170.722 169.199 182.583 165.894 183.75 165.116C183.491 166.38 179.148 168.389 179.148 168.389H184.236C184.236 168.389 180.671 174.287 179.634 174.806C178.63 175.324 170.593 172.764 170.593 172.764L159.38 174.514L161.162 168.389Z" fill="#FCD2B1"/>
<path d="M102.018 90.7407L107.528 79.3981C107.528 79.3981 97.8054 67.0833 97.8054 65.1389C100.722 65.787 107.528 70.6481 107.528 70.3241C106.879 68.7037 105.583 65.787 105.907 64.4907C107.528 66.1111 111.741 72.5926 111.741 74.537C111.741 76.4815 109.148 92.3611 109.148 92.3611L102.018 90.7407Z" fill="#FCD2B1"/>
<path d="M104.611 139.028C104.287 136.435 103.963 99.4907 112.065 88.7962C107.528 86.8518 99.4258 86.8518 99.1018 88.7962C98.7777 90.7407 93.2684 116.018 94.2407 125.741C95.2129 135.463 89.3795 141.296 87.7592 145.833C86.1388 150.37 92.6203 155.555 90.3518 163.333C88.0832 171.111 80.3055 182.13 84.5184 194.768C93.9166 197.037 100.722 179.537 109.148 178.565C117.574 177.593 119.194 177.917 121.463 177.917C114.009 172.083 113.685 172.083 114.657 169.491C115.63 166.898 116.926 161.065 120.167 158.796C123.407 156.528 131.509 150.046 131.509 150.046L104.611 139.028Z" fill="#FFBE55"/>
<path d="M109.051 121.787C111.416 122.889 112.907 125.352 113.653 127.847C114.398 130.343 114.528 133 114.949 135.56C115.629 139.514 117.023 143.273 118.416 147C119.583 150.144 120.782 153.352 122.662 156.139C124.541 158.926 127.166 161.357 130.375 162.361C133.583 163.366 137.44 162.62 139.643 160.093C141.329 158.181 141.944 155.458 143.694 153.611C146.708 150.435 151.764 150.921 156.041 149.949C159.509 149.171 162.815 147.13 164.435 143.986C166.023 140.81 165.472 136.5 162.62 134.361C161.227 133.324 159.509 132.903 157.921 132.157C156.333 131.412 154.778 130.245 154.486 128.56C154.097 126.519 155.62 124.671 156.69 122.921C158.31 120.329 159.185 117.12 158.407 114.139C157.629 111.19 154.875 108.662 151.796 108.759C149.171 108.857 147 110.671 144.796 112.065C141.847 113.912 138.282 115.111 134.879 114.366C128.43 112.94 125.092 105.357 118.903 103.056C114.139 101.306 108.273 103.509 105.81 107.949C103.347 112.389 104.643 118.514 108.662 121.625L109.051 121.787Z" fill="#0B4870"/>
<path d="M110.12 131.574C108.5 134.167 107.528 138.38 104.611 139.028C103.639 140.972 117.25 155.556 131.509 150.046C125.676 147.13 116.796 143.306 116.051 140.033C115.306 136.759 114.269 131.639 114.269 131.639L110.12 131.574Z" fill="#FCD2B1"/>
<path d="M123.083 123.667C123.083 129.759 116.278 135.495 112.194 135.495C108.079 135.495 106.069 130.958 106.069 124.866C106.069 118.773 111.546 112.648 115.63 112.648C119.745 112.616 123.083 117.574 123.083 123.667Z" fill="#FFE3CA"/>
<path d="M110.153 105.94C108.306 107.269 107.787 109.861 108.37 112.065C108.954 114.236 110.444 116.083 112 117.704C113.556 119.324 115.306 120.847 116.537 122.727C117.736 124.542 118.417 126.616 119.486 128.528C120.556 130.407 122.111 132.19 124.218 132.708C125.222 132.968 126.421 132.838 127.134 132.093C127.62 131.607 127.815 130.894 127.945 130.213C129.046 125.157 128.269 119.713 125.806 115.176C123.343 110.639 119.162 107.042 114.301 105.259L110.153 105.94Z" fill="#0B4870"/>
<path d="M122.783 130.877C124.157 129.906 124.752 128.384 124.111 127.478C123.471 126.572 121.838 126.624 120.464 127.595C119.09 128.566 118.495 130.088 119.136 130.994C119.776 131.9 121.409 131.848 122.783 130.877Z" fill="#FFE3CA"/>
<path d="M120.426 133.648C121.607 133.648 122.565 132.69 122.565 131.509C122.565 130.328 121.607 129.37 120.426 129.37C119.245 129.37 118.287 130.328 118.287 131.509C118.287 132.69 119.245 133.648 120.426 133.648Z" fill="#2A94F4"/>
<path d="M131.509 150.046C142.106 157.63 152.704 167.514 166.671 167.19C165.051 171.014 162.912 174.352 163.009 175.389C158.602 174.676 128.43 165.667 118.87 159.38C115.467 149.949 119.162 150.435 119.162 150.435C120.815 150.759 124.995 151.537 131.509 150.046Z" fill="#FFBE55"/>
<path d="M267.847 276.176C267.847 276.176 269.208 284.959 270.018 285.477C270.829 285.996 278.12 287.908 281.458 290.824C278.315 293.741 272.838 294.746 272.352 294.746C271.866 294.746 263.893 295.394 262.727 294.746C261.56 294.097 255.597 283.144 255.597 281.653C255.597 280.162 264.898 272.708 264.898 272.708L267.847 276.176Z" fill="#0E538C"/>
<path d="M256.051 202.352C271.801 208.93 295.004 229.995 292.055 237.19C289.106 244.384 268.852 274.815 270.699 279.611C268.819 282.009 260.555 271.347 260.555 271.347C260.555 271.347 272.028 237.157 274.166 234.273C269.629 233.236 245.972 219.981 247.787 213.791C249.602 207.602 256.051 202.352 256.051 202.352Z" fill="#F2A638"/>
<path d="M183.912 298.375C178.856 301.583 172.699 302.944 171.37 306.671C170.042 310.398 166.574 317.593 168.162 319.213C172.148 320.023 186.569 307.222 187.639 303.204C188.708 299.153 183.912 298.375 183.912 298.375Z" fill="#0E538C"/>
<path d="M222.833 214.602C215.931 226.755 207.699 256.019 203.778 262.273C197.847 268.528 188.125 286.611 180.509 295.491C177.171 306.996 190.069 306.671 190.069 306.671C190.069 306.671 212.236 267.88 214.407 266.584C216.579 265.287 249.796 224.357 253.75 222.38C255.986 219.236 259.162 215.801 258.838 209.903C258.514 204.005 222.833 214.602 222.833 214.602Z" fill="#FFBE55"/>
<path d="M234.273 120.556C231.843 117.477 227.338 113.491 226.431 113.491C225.523 113.491 199.727 120.037 195.643 124.412C191.528 128.787 188.838 133.389 190.653 135.333C192.435 137.245 198.981 135.333 198.981 135.333C198.981 135.333 201.153 130.569 200.278 129.954C199.403 129.338 198.009 128.301 198.009 128.301C198.009 128.301 214.375 121.625 230.028 125.611C233.106 125.806 234.273 120.556 234.273 120.556Z" fill="#FCD2B1"/>
<path d="M202.125 198.074C202.125 198.074 185.694 209.449 185.176 209.32C184.657 209.19 178.662 209.32 178.662 209.32C178.662 209.32 175.227 215.056 175.356 215.574C175.486 216.093 183.782 218.75 185.565 217.357C187.347 215.963 187.866 213.662 187.866 213.662C187.866 213.662 206.338 206.5 207.504 203.81C208.639 201.121 202.125 198.074 202.125 198.074Z" fill="#FCD2B1"/>
<path d="M229.347 156.106C233.042 149.528 235.731 132.287 227.241 125.708C228.051 121.042 232.847 118.481 232.847 118.481C232.847 118.481 257.218 134.069 254.981 168.745C260.75 181.19 277.213 205.495 282.106 206.532C269.208 209.19 265.481 207.861 254.69 215.412C243.898 222.963 222.25 238.972 217.745 224.745C219.269 211.977 224.486 197.199 222.056 192.079C219.625 196.681 209.319 206.37 207.181 206.921C205.042 207.472 198.009 198.819 198.009 198.819C198.009 198.819 211.264 186.407 210.972 181.838C210.713 177.236 212.69 164.565 219.236 165.116C225.782 165.667 226.009 162.847 226.009 162.847L229.347 156.106Z" fill="#2A94F4"/>
<path d="M227.662 152.185L231.94 156.106L231.875 161.389L239.718 176.555L228.472 164.954L225.62 164.727L224.972 160.352L227.662 152.185Z" fill="#FCD2B1"/>
<path d="M226.009 150.889C227.046 150.046 228.667 152.768 229.347 151.634C230.417 149.852 230.481 144.083 230.741 142.009C231.032 139.935 230.579 137.699 229.185 136.143C227.597 134.361 225.037 133.713 222.639 133.907C220.273 134.102 218.004 134.977 215.768 135.819C213.532 136.662 211.231 137.472 208.833 137.472C207.958 137.472 207.083 137.375 206.208 137.472C205.333 137.569 204.458 137.958 203.972 138.704C203.421 139.579 203.583 140.68 203.94 141.653C204.264 142.625 204.782 143.532 204.912 144.537C205.074 145.801 204.62 147.129 203.778 148.134C202.967 149.139 201.833 149.852 200.634 150.338C199.5 150.792 198.042 151.342 197.977 152.574C197.912 153.579 198.884 154.292 199.759 154.745C204.231 156.949 209.903 156.43 213.889 153.449C213.921 153.449 221.991 154.097 226.009 150.889Z" fill="#0B4870"/>
<path d="M227.176 148.555C230.741 153.352 229.606 158.861 225.944 161.551C222.315 164.241 216.481 162.523 212.916 157.727C209.352 152.93 206.532 150.694 213.078 144.148C216.287 140.94 223.611 143.759 227.176 148.555Z" fill="#FFE3CA"/>
<path d="M208.769 146.741C209.773 145.185 210.875 143.532 212.495 142.657C214.051 141.815 215.898 141.75 217.648 141.847C219.787 141.977 221.926 142.301 224 142.852C225.588 143.273 227.306 143.954 227.986 145.477C228.764 147.227 227.63 149.43 225.88 150.241C224.13 151.051 222.056 150.792 220.273 150.079C219.495 149.755 218.75 149.366 217.94 149.204C217.13 149.042 216.19 149.171 215.607 149.787C215.185 150.208 215.023 150.792 214.699 151.31C213.921 152.509 212.366 153.028 210.94 152.833C209.514 152.639 208.25 151.861 207.148 150.954L208.769 146.741Z" fill="#0B4870"/>
<path d="M228.472 150.919C229.272 150.518 229.368 149.09 228.687 147.73C228.006 146.37 226.805 145.592 226.004 145.993C225.204 146.394 225.108 147.821 225.789 149.182C226.471 150.542 227.672 151.32 228.472 150.919Z" fill="#FFE3CA"/>
<path d="M45.8238 315.033C38.3701 315.033 35.259 309.102 33.9951 302.783C32.6016 295.685 33.6386 288.102 33.6386 288.102H58.009C58.009 288.102 58.0414 288.394 58.1062 288.912C58.5599 293.384 60.0182 315.033 45.8238 315.033Z" fill="#B6E7FF"/>
<path d="M58.009 288.102C58.009 288.621 52.5646 289.074 45.8239 289.074C39.0831 289.074 33.6387 288.653 33.6387 288.102C33.6387 287.584 39.0831 287.13 45.8239 287.13C52.5322 287.13 58.009 287.551 58.009 288.102Z" fill="#85DDFF"/>
<path d="M78.8146 220.5C78.8146 220.5 65.9489 240.074 58.2359 252C50.5229 263.926 48.5137 266.421 47.5739 270.278C46.6665 274.134 45.8239 288.361 45.8239 288.361H45.2405C45.2405 288.361 45.435 276.273 46.1479 272.222C46.8285 268.301 46.1155 266.875 45.5646 262.759C45.0137 258.611 44.2683 252 48.4489 247.431C52.6294 242.829 51.5276 238.324 52.9859 235.31C54.4442 232.264 65.8516 228.602 67.31 225.491C68.8007 222.347 75.2498 220.435 78.8146 220.5Z" fill="#2A94F4"/>
<path d="M78.8145 220.5C78.8145 220.5 74.7636 225.102 72.009 226.657C69.2544 228.213 67.9581 226.852 65.8516 230.611C63.7451 234.37 63.6479 236.023 61.7358 237.968C59.7914 239.88 57.5229 239.977 57.3284 244.222C57.134 248.435 58.2358 252.032 58.2358 252.032C58.2358 252.032 78.0044 221.537 78.8145 220.5Z" fill="#41AAF7"/>
<path d="M46.8609 288.362H47.4442C47.4442 288.362 47.6063 284.44 49.1618 282.561C50.1664 281.329 54.4118 279.936 58.6248 278.283C60.9257 277.375 63.259 276.371 64.9766 275.269C69.8702 272.158 74.5368 262.144 74.9257 260.362C75.0553 259.746 75.1202 259.357 75.1202 259.098C75.1202 258.612 74.8609 258.547 74.472 258.061C74.2776 257.834 73.6942 257.899 72.9489 258.125C70.8424 258.774 69.06 260.199 67.9581 262.112C66.9535 263.862 65.3007 266.098 63.3239 266.616C59.8563 267.524 60.1479 268.107 58.884 271.607C57.6202 275.107 54.4118 275.69 50.3933 279.838C46.3424 283.987 46.8609 288.362 46.8609 288.362Z" fill="#2A94F4"/>
<path d="M58.6572 278.282C60.9582 277.375 63.2915 276.37 65.0091 275.268C69.9026 272.157 74.5693 262.143 74.9582 260.361C75.0878 259.745 75.1526 259.356 75.1526 259.097C75.1526 259.227 74.9258 260.815 72.3656 261.852C69.7082 262.954 69.1896 262.954 68.8656 264.606C68.5091 266.259 68.2174 268.074 66.8563 268.398C65.4628 268.755 64.6202 267.199 63.5183 269.727C62.4165 272.255 61.898 273.13 60.8933 273.454C59.8887 273.81 59.1109 273.292 58.9165 275.236C58.7544 276.435 58.6896 277.569 58.6572 278.282Z" fill="#41AAF7"/>
<path d="M42.648 288.361H41.9674C41.9674 288.361 40.6387 264.153 38.7915 261.884C37.5924 260.426 33.7035 257.834 28.7128 255.857C25.9582 254.755 23.236 253.588 21.1943 252.292C15.3934 248.597 9.88411 236.769 9.39799 234.63C9.23596 233.884 9.17114 233.463 9.17114 233.139C9.17114 232.556 9.46281 232.491 9.94892 231.908C10.1758 231.616 10.8887 231.713 11.7637 231.972C14.2591 232.75 16.3656 234.435 17.6619 236.704C18.861 238.81 20.8054 241.403 23.1711 242.051C27.2545 243.153 26.9304 243.834 28.4211 247.982C29.9119 252.13 33.736 252.81 38.4998 257.736C43.2637 262.662 42.648 288.361 42.648 288.361Z" fill="#2A94F4"/>
<path d="M28.7128 255.889C25.9582 254.787 23.236 253.62 21.1943 252.324C15.3934 248.63 9.88411 236.801 9.39799 234.662C9.23596 233.917 9.17114 233.495 9.17114 233.171C9.20355 233.301 9.46281 235.181 12.4767 236.445C15.6202 237.741 16.236 237.741 16.6248 239.718C17.0461 241.695 17.3702 243.801 19.023 244.222C20.6434 244.644 21.6804 242.796 22.9767 245.778C24.273 248.759 24.8887 249.796 26.0878 250.218C27.2869 250.639 28.1943 250.023 28.4535 252.324C28.5832 253.718 28.6804 255.046 28.7128 255.889Z" fill="#41AAF7"/>
<path d="M45.8238 315.032C38.3701 315.032 35.259 309.102 33.9951 302.782C41.2868 300.028 50.4581 295.588 58.1062 288.912C58.5599 293.384 60.0183 315.032 45.8238 315.032Z" fill="#CCE9FF"/>
<path d="M313.574 314.579C318.792 314.579 320.963 310.431 321.838 306.023C322.81 301.065 322.097 295.75 322.097 295.75H305.051C305.051 295.75 305.018 295.944 304.986 296.301C304.662 299.444 303.625 314.579 313.574 314.579Z" fill="#B6E7FF"/>
<path d="M305.051 295.75C305.051 296.106 308.875 296.43 313.574 296.43C318.273 296.43 322.097 296.139 322.097 295.75C322.097 295.393 318.273 295.069 313.574 295.069C308.842 295.069 305.051 295.361 305.051 295.75Z" fill="#85DDFF"/>
<path d="M334.801 248.468C334.801 248.468 325.824 262.143 320.412 270.505C315 278.866 313.606 280.583 312.958 283.273C312.31 285.963 311.727 295.912 311.727 295.912H311.014C311.014 295.912 310.56 287.486 311.403 284.731C312.245 281.977 311.921 280.875 311.532 277.991C311.143 275.106 310.625 270.472 313.542 267.264C316.458 264.056 315.68 260.912 316.718 258.773C317.755 256.667 325.694 254.074 326.731 251.903C327.801 249.764 332.306 248.403 334.801 248.468Z" fill="#2A94F4"/>
<path d="M334.801 248.468C334.801 248.468 331.981 251.676 330.037 252.778C328.125 253.88 327.218 252.908 325.727 255.533C324.236 258.158 324.204 259.324 322.843 260.685C321.481 262.046 319.893 262.111 319.764 265.06C319.634 268.009 320.412 270.505 320.412 270.505C320.412 270.505 334.218 249.181 334.801 248.468Z" fill="#41AAF7"/>
<path d="M313.866 295.945H314.514C314.514 295.945 314.708 291.57 316.426 289.463C317.528 288.102 322.292 286.547 326.991 284.667C329.583 283.63 332.144 282.528 334.088 281.297C339.532 277.829 344.75 266.648 345.204 264.672C345.366 263.991 345.431 263.57 345.431 263.278C345.431 262.727 345.139 262.662 344.685 262.111C344.458 261.852 343.81 261.949 343 262.176C340.634 262.889 338.657 264.51 337.426 266.648C336.292 268.625 334.477 271.088 332.241 271.672C328.384 272.709 328.708 273.324 327.282 277.246C325.857 281.167 322.292 281.815 317.787 286.417C313.282 291.051 313.866 295.945 313.866 295.945Z" fill="#2A94F4"/>
<path d="M326.991 284.667C329.583 283.63 332.144 282.528 334.088 281.296C339.532 277.829 344.75 266.648 345.204 264.671C345.366 263.991 345.431 263.569 345.431 263.278C345.431 263.407 345.171 265.19 342.319 266.357C339.37 267.588 338.787 267.588 338.398 269.435C338.009 271.282 337.685 273.292 336.162 273.681C334.606 274.069 333.667 272.319 332.435 275.171C331.204 277.991 330.62 278.963 329.519 279.352C328.384 279.741 327.542 279.157 327.282 281.329C327.12 282.625 327.023 283.889 326.991 284.667Z" fill="#41AAF7"/>
<path d="M313.574 314.579C318.792 314.579 320.963 310.43 321.838 306.023C316.75 304.079 310.301 301 304.986 296.301C304.662 299.444 303.625 314.579 313.574 314.579Z" fill="#CCE9FF"/>
</svg>
